/* XPM */
static char *desktop[] = {
/* columns rows colors chars-per-pixel */
"48 48 243 2 ",
"   c #000000",
".  c #0A0A0A",
"X  c #0F161F",
"o  c #131314",
"O  c #12171F",
"+  c #1B1B1B",
"@  c #1F1F20",
"#  c #161F2A",
"$  c #1D222B",
"%  c #152335",
"&  c #12253E",
"*  c #242424",
"=  c #26292D",
"-  c #2A2B2C",
";  c #202935",
":  c #2E343C",
">  c #333333",
",  c #3D3D3D",
"<  c #4F7E3A",
"1  c #122640",
"2  c #182640",
"3  c #132946",
"4  c #1A2B43",
"5  c #163256",
"6  c #363D46",
"7  c #313B4A",
"8  c #213652",
"9  c #2D3D51",
"0  c #20395C",
"q  c #0D2D66",
"w  c #0E2E69",
"e  c #0F316A",
"r  c #103167",
"t  c #1A3A64",
"y  c #13336C",
"u  c #1C3F6B",
"i  c #153570",
"p  c #163A74",
"a  c #1E3B71",
"s  c #173D7A",
"d  c #183E7C",
"f  c #213E73",
"g  c #3F4042",
"h  c #39404A",
"j  c #364354",
"k  c #3D4653",
"l  c #34455C",
"z  c #1F4474",
"x  c #18417D",
"c  c #304666",
"v  c #224574",
"b  c #2C4B74",
"n  c #214A7D",
"m  c #3A5374",
"M  c #36537C",
"N  c #434445",
"B  c #4A4B4B",
"V  c #545455",
"C  c #545659",
"Z  c #5C5C5C",
"A  c #4E7B41",
"S  c #5E5F60",
"D  c #515E6F",
"F  c #656565",
"G  c #6D6D6D",
"H  c #767676",
"J  c #797979",
"K  c #97201D",
"L  c #902828",
"P  c #BE512C",
"I  c #B45537",
"U  c #997738",
"Y  c #A1762C",
"T  c #77AC51",
"R  c #73A559",
"E  c #D9AD1E",
"W  c #C4A228",
"Q  c #A28149",
"!  c #B28E4C",
"~  c #8A867A",
"^  c #A8987B",
"/  c #C19A56",
"(  c #CCA86A",
")  c #C2A672",
"_  c #D7B477",
"`  c #D2B179",
"'  c #143B84",
"]  c #153F8C",
"[  c #17418D",
"{  c #18438E",
"}  c #174393",
"|  c #1A4694",
" . c #1D4897",
".. c #1E4C9A",
"X. c #1F509F",
"o. c #234D84",
"O. c #244F8A",
"+. c #245087",
"@. c #24508A",
"#. c #3D5880",
"$. c #305589",
"%. c #204A93",
"&. c #214E9C",
"*. c #265491",
"=. c #285694",
"-. c #22509F",
";. c #2B5C9E",
":. c #365F95",
">. c #335D98",
",. c #3D649C",
"<. c #1F51A0",
"1. c #2454A3",
"2. c #2758A7",
"3. c #2A5DA2",
"4. c #2257A8",
"5. c #2459AA",
"6. c #295CAB",
"7. c #265EB1",
"8. c #295FB0",
"9. c #2B60AD",
"0. c #3D66A2",
"q. c #3D68A7",
"w. c #3465AD",
"e. c #3B67A9",
"r. c #3E6BAB",
"t. c #2761B3",
"y. c #2C63B4",
"u. c #2F68B1",
"i. c #2B66B9",
"p. c #2E69BC",
"a. c #3067B5",
"s. c #316BB3",
"d. c #3A6AB0",
"f. c #326BBB",
"g. c #396EB9",
"h. c #3D72BC",
"j. c #415B84",
"k. c #405E8A",
"l. c #406696",
"z. c #426599",
"x. c #576F95",
"c. c #577095",
"v. c #597296",
"b. c #5C759A",
"n. c #5E7A9E",
"m. c #737A85",
"M. c #657C9D",
"N. c #4066A1",
"B. c #426AA4",
"V. c #4A6EA1",
"C. c #436CA9",
"Z. c #4670AC",
"A. c #4A73AE",
"S. c #5F7CA0",
"D. c #5678AB",
"F. c #5C7EAF",
"G. c #466FB3",
"H. c #4371B5",
"J. c #4B75B3",
"K. c #4E7AB7",
"L. c #4174BB",
"P. c #4D7CBC",
"I. c #5177B6",
"U. c #617EA3",
"Y. c #2E6DC1",
"T. c #306FC2",
"R. c #3372C4",
"E. c #3B75C2",
"W. c #3D79C6",
"Q. c #3475CA",
"!. c #367ACE",
"~. c #3B7BCC",
"^. c #397DD2",
"/. c #4277C0",
"(. c #437AC5",
"). c #447EC8",
"_. c #7F8899",
"`. c #5E87BE",
"'. c #6381A5",
"]. c #6488B7",
"[. c #6789BA",
"{. c #708EBD",
"}. c #7390B7",
"|. c #3B81D6",
" X c #3D85DA",
".X c #3F88DE",
"XX c #4D83C7",
"oX c #4C83CC",
"OX c #5383C6",
"+X c #5A86C4",
"@X c #5688C6",
"#X c #5B89C7",
"$X c #5789CB",
"%X c #5C8CCB",
"&X c #408ADF",
"*X c #5E92D1",
"=X c #648BC6",
"-X c #6C91C7",
";X c #6993CD",
":X c #7697C7",
">X c #7299CF",
",X c #799CCC",
"<X c #6A98D4",
"1X c #779DD0",
"2X c #7C9FD1",
"3X c #7DA2D4",
"4X c #418CE2",
"5X c #838383",
"6X c #8C8C8C",
"7X c #808793",
"8X c #939394",
"9X c #9E9E9E",
"0X c #8B95A7",
"qX c #9399A3",
"wX c #989EA5",
"eX c #8095B2",
"rX c #8F9EB3",
"tX c #9FA1A5",
"yX c #A3A4A4",
"uX c #ABACAC",
"iX c #A3AAB5",
"pX c #B6B6B6",
"aX c #B4B7BC",
"sX c #B7B9BA",
"dX c #BCBCBC",
"fX c #80A5D7",
"gX c #81A7D8",
"hX c #83AADC",
"jX c #86AEE1",
"kX c #87B0E3",
"lX c #89B2E5",
"zX c #8BB6E9",
"xX c #8CB8EB",
"cX c #BFC0C2",
"vX c #BDC4CE",
"bX c #C3C3C3",
"nX c #CCCCCC",
"mX c #D3D3D3",
"MX c #DBDBDB",
"NX c #E4E4E4",
"BX c #EDEDED",
"VX c #F7F7F7",
"CX c None",
/* pixels */
"CXCXCXCXCXCXCXCXCXCXCXCXCXCXCXCXCXCXCXCXCXCXCXCXCXCXCXCXCXCXCXCXCXCXCXCXCXCXCXCXCXCXCXCXCXCXCXCX",
"CXCXCXCXCXCXCXCXCXCXCXCXCXCXCXCXCXCXCXCXCXCXCXCXCXCXCXCXCXCXCXCXCXCXCXCXCXCXCXCXCXCXCXCXCXCXCXCX",
"CXCXCXCXCXCXCXCXCXCXCXCXCXCXCXCXCXCXCXCXCXCXCXCXCXCXCXCXCXCXCXCXCXCXCXCXCXCXCXCXCXCXCXCXCXCXCXCX",
"CXCXCXCXmXBXVXVXVXVXVXVXVXVXVXVXVXVXVXVXVXVXVXVXVXVXVXVXVXVXVXVXVXVXVXVXVXVXVXVXVXVXBXmXCXCXCXCX",
"CXCXCXbXBXNXNXNXNXNXNXNXNXNXNXNXNXNXNXNXNXNXNXBXBXBXBXBXVXBXBXBXBXBXBXVXVXBXBXBXBXBXBXVXbXCXCXCX",
"CXCXCXNXNXNXNXNXNXNXNXMXMXNXNXNXNXNXNXNXNXNXNXBXBXBXBXBXBXBXBXBXBXBXBXBXBXBXBXBXVXBXBXBXNXCXCXCX",
"CXCXCXBXMXNXMXdXuXuXuXuXuXuXuXuXuXuXuXuXuXuXuXuXuXuXuXuXuXuXuXuXuXuXuXuXuXuXuXuXbXNXBXBXBXCXCXCX",
"CXCXCXNXNXNXbX0Xf y y y y y y y i y y y y y y y i u y y y y y i e e r r w w w f 0XnXBXBXNXCXCXCX",
"CXCXCXNXNXMXpXf ' ] [ ] ] } [ [ [ } ] ] | ] ] %.3X%X%X%X*X*X$X$X%X%X%X$X$X*X$X(.a pXBXBXNXCXCXCX",
"CXCXCXNXMXMXuXy ] } } } | | } | | | | | | | | | 1X*X*X*X*X*X*X*X*X*X*X*X*X*X*X$Xq uXNXNXBXCXCXCX",
"CXCXCXNXMXMXpXy [ } ~ ) ^ m.| | | | | | | | ] | I.<X*X*X*X*X*X*X*X*X*X*X*X*X*X$Xw pXNXnXmXCXCXCX",
"CXCXCXNXMXMXpXy [ } ` _ _ ` | | | | | | | | | | %.3X*X*X%X*X*X*X*X%X%X*X$X%X$X$Xq uXdXmXsXNX, > ",
"CXCXCXNXMXMXpXy [ } ( / / ( | | | | | %.| | | | %.-X%X%X%X%X%X%X%X%X%X%X%X#X#X`._.bXMXnXmXdX9XCX",
"CXCXCXNXMXMXpXy [ } Q ! ! Q | | | | | | | | | &. .G.;X%X=X%X=X%X#X%X%X#X#X#XeXbXuXuXMXpX8XG 6XCX",
"CXCXCXNXMXMXpXy [ | | | | %.|  . . .&.&. ...&.&.&.%.1X%X%X%X%X%X#X#X#X#X}.aXsX9XmXdX9XH B * CXCX",
"CXCXCXNXMXmXpXy [ | | | | |  .%.&. .&.%.&.&.&.&.&.-.=X=X#X#X#X#X#X+X[.iXbXwXcXnXyX5XZ C pXCXCXCX",
"CXCXCXMXMXMXdXi ] } uX8X8XtX%.&.&.&.-.-.-.-.-.-.-.-.G.;X#X=X=X=X`.rXbXyXpXmXuX6XF B 8XMXMXCXCXCX",
"CXCXCXMXmXMXdXy [ | cXnXdXaX-.&.-.-.1.1.2.2.2.2.2.2.2.>X%X).=X).aXpXyXMXsX8XG B & uXMXMXMXCXCXCX",
"CXCXCXMXmXmXdXy [  .cXbXsXpX1.1.1.1.2.2.2.2.2.2.2.2.6.=X%X=X[.wXyXmXbX9XJ V j z.q sXMXMXMXCXCXCX",
"CXCXCXmXmXmXcXi } ..qXyXwX_.1.2.2.2.6.6.6.6.6.6.2.6.6.G.;XV.S MXnXuX5XZ h k.A.Z.q dXMXMXMXCXCXCX",
"CXCXCXMXmXmXbXi } ..1.1.1.1.2.2.6.6.6.6.9.6.y.9.9.6.6.6.9 o N 5X6XF N m A.J.J.G.y bXmXMXmXCXCXCX",
"CXCXCXMXnXmXbXi  .-.X.1.2.2.6.6.6.8.9.y.y.a.y.y.y.a.v - - o . > B l Z.A.J.P.P.J.r dXnXmXmXCXCXCX",
"CXCXCXmXmXmXbXp ..X.1.1.6.6.6.8.y.9.y.y.y.a.i.a.>.7 > @ - . # m V.A.J.P.J.A.C.N.q dXnXmXmXCXCXCX",
"CXCXCXmXnXnXnXp ..1.4.5.6.6.8.8.y.a.a.a.a.a.a.c g g > o # m A.J.P.P.P.B.N.B.C.0.y dXnXmXmXCXCXCX",
"CXCXCXmXnXnXnXi <.<.5.5.t.t.y.y.u.p.p.f.f.$.: g , > * 0 1.J.OXOXP.0.,.B.B.0.0.0.y dXnXnXnXCXCXCX",
"CXCXCXmXnXnXnXp <.<.t.6.7.9.y.u.u.p.f.9.9 N g @ = 8 ;.w.a.e.A.,.,.,.,.0.0.0.q.0.y dXnXmXmXCXCXCX",
"CXCXCXnXnXnXnXs <.5.5.6.t.y.i.p.p.f.b N , * - 4 =.;.;.%.o.O.l.,.,.,.0.0.0.q.e.e.p nXmXnXnXCXCXCX",
"CXCXCXnXnXnXnXs <.5.5.t.t.y.p.p.;.k N > @ % z +.o.o.o.o.O.o.:.,.0.C.e.C.H.L.L.r.s nXnXmXnXCXCXCX",
"CXCXCXnXbXnXnXs <.t.t.t.y.p.p.M C , * $ 5 z z n o.o.o.+.*.3.a.XX).(.(./.L.L.g.r.s nXnXnXnXCXCXCX",
"CXCXCXnXbXnXmXs <.5.t.t.y.9.D B > # & t z z z n +.;.u.R.Q.Q.R.XX).(.(.L.h.h.g.w.s mXnXnXnXCXCXCX",
"CXCXCXbXbXbXmXs 1.t.t.y.>.C , $ & t u z +.;.u.E.|.^.~.^.!.Q.R.~.).W.E.E.h.g.g.w.s mXnXnXbXCXCXCX",
"CXCXCXbXbXbXMXs 4.t.t.;.h % 3 u +.;.f.!.|.|.|.|.|.|.|.^.~.!.Q.Q.).W.E.E.T.g.f.9.x mXnXbXbXCXCXCX",
"CXCXCXbXbXbXmXd 4.7.t.i.t.i.T.R.Q.!.!.^.|.|. X X X X|.^.^.!.Q.Q.!.Q.E.T.f.f.a.6.' MXbXbXbXCXCXCX",
"CXCXCXbXbXbXMXz 4.7.t.i.i.Y.T.Q.Q.!.^.^. X X.X&X&X X X X^.^.!.Q.Q.E.R.f.Y.p.y.6.s MXbXbXbXCXCXCX",
"CXCXCXbXbXcXMXx 4.t.i.i.p.Y.T.Q.Q.!.^.|. X X&X4X4X&X X X|.^.!.!.R.R.T.f.Y.7.7.5.x MXbXbXbXCXCXCX",
"CXCXCXdXcXcXMXz 4.t.t.i.p.Y.T.Q.!.!.^.|. X X4X4X4X&X&X X|.^.!.Q.Q.Y.Y.Y.i.i.7.2.x MXcXcXcXCXCXCX",
"CXCXCXdXcXdXMX[ 2.t.`.D.W E T.R.~.!.^.|.&X&X&X4X4X&X&X X|.^.~.!.Q.Y.Y.Y.i.t.7.5.x MXdXcXcXCXCXCX",
"CXCXCXbXcXdXMXv.:X2XM #.U U kX3XhXkXkXlXkXzXxXxXxXzXzXlXlXjXkXhXhXjXhX3X3X2X2X:Xx.NXdXdXdXCXCXCX",
"CXCXCXdXdXdXNXv.:X2XP I R T 3XkXhXjXkXkXlXlXxXxXzXzXzXlXkXkXjXhXjX3XhX3X3X3X2X:Xv.NXdXdXcXCXCXCX",
"CXCXCXdXdXdXMXM.{.:XK L A < 3X3XfXfXgXgXhXhXhXhXhXhXhXhXgXgXfXfX2X2X2X2X2X>X:X{.M.NXdXdXdXCXCXCX",
"CXCXCXdXsXsXmXbXM.v.b.b.M.b.b.M.U.U.U.U.'.'.'.'.'.'.'.U.U.U.U.U.n.M.b.M.b.b.b.M.cXmXsXsXdXCXCXCX",
"CXCXCXdXsXsXcXmXNXNXNXNXNXNXNXNXNXNXNXNXNXNXNXNXNXNXNXNXNXNXNXNXNXNXNXNXNXNXNXNXMXdXsXsXdXCXCXCX",
"CXCXCX9XpXpXpXsXsXsXsXpXsXsXsXpXpXsXsXpXdXpXpXsXdXpXpXsXsXsXpXpXsXpXpXsXsXpXpXpXpXpXpXpX9XCXCXCX",
"CXCXCXZ dXsXpXsXpXpXpXpXpXpXpXpXpXpXpXpXpXpXpXpXpXpXpXpXpXpXpXpXpXpXpXpXpXpXpXpXpXpXpXsXS CXCXCX",
"CXCXCX. Z yXdXdXdXbXbXbXbXnXbXnXnXnXnXnXnXmXmXmXmXmXmXnXnXnXnXnXnXbXnXbXbXbXbXbXcXdXyXZ . CXCXCX",
"CXCXCXCXCX                                                                            CXCXCXCXCX",
"CXCXCXCXCXCXCXCXCXCXCXCXCXCXCXCXCXCXCXCXCXCXCXCXCXCXCXCXCXCXCXCXCXCXCXCXCXCXCXCXCXCXCXCXCXCXCXCX",
"CXCXCXCXCXCXCXCXCXCXCXCXCXCXCXCXCXCXCXCXCXCXCXCXCXCXCXCXCXCXCXCXCXCXCXCXCXCXCXCXCXCXCXCXCXCXCXCX"
};
